M48
; DRILL file KiCad 10.0.1 date 2026-05-09T19:54:47
; FORMAT={-:-/ absolute / metric / decimal}
; #@! TF.CreationDate,2026-05-09T19:54:47+02:00
; #@! TF.GenerationSoftware,Kicad,Pcbnew,10.0.1
; #@! TF.FileFunction,NonPlated,1,2,NPTH
FMAT,2
METRIC
; #@! TA.AperFunction,NonPlated,NPTH,ComponentDrill
T1C1.700
; #@! TA.AperFunction,NonPlated,NPTH,ComponentDrill
T2C3.000
; #@! TA.AperFunction,NonPlated,NPTH,ComponentDrill
T3C3.400
%
G90
G05
T1
X61.5Y-90.0
X63.75Y-158.0
X66.0Y-107.0
X68.25Y-124.0
X72.5Y-90.0
X72.75Y-141.0
X74.75Y-158.0
X77.0Y-107.0
X79.25Y-124.0
X79.5Y-90.0
X83.75Y-141.0
X86.225Y-158.05
X88.5Y-107.0
X90.5Y-90.0
X93.0Y-124.0
X97.225Y-158.05
X97.5Y-90.0
X99.5Y-107.0
X102.0Y-141.0
X104.0Y-124.0
X106.5Y-107.0
X108.5Y-90.0
X108.775Y-158.125
X111.0Y-124.0
X113.0Y-141.0
X115.5Y-90.0
X117.5Y-107.0
X119.775Y-158.125
X120.0Y-141.0
X122.0Y-124.0
X124.5Y-107.0
X126.5Y-90.0
X129.0Y-124.0
X131.0Y-141.0
X133.5Y-90.0
X135.5Y-107.0
X138.0Y-141.0
X140.0Y-124.0
X142.5Y-107.0
X144.5Y-90.0
X147.0Y-124.0
X149.0Y-141.0
X151.5Y-90.0
X153.5Y-107.0
X156.0Y-141.0
X158.0Y-124.0
X160.5Y-107.0
X162.5Y-90.0
X165.0Y-124.0
X167.0Y-141.0
X169.5Y-90.0
X171.5Y-107.0
X174.0Y-141.0
X176.0Y-124.0
X176.275Y-158.025
X178.5Y-107.0
X180.5Y-90.0
X183.0Y-124.0
X185.0Y-141.0
X187.275Y-158.025
X187.5Y-90.0
X189.5Y-107.0
X192.0Y-141.0
X194.0Y-124.0
X196.5Y-107.0
X198.5Y-90.0
X201.0Y-124.0
X203.0Y-141.0
X205.5Y-90.0
X207.5Y-107.0
X210.0Y-141.0
X212.0Y-124.0
X214.5Y-107.0
X216.5Y-90.0
X219.0Y-124.0
X221.0Y-141.0
X223.5Y-90.0
X225.5Y-107.0
X228.0Y-141.0
X230.0Y-124.0
X232.5Y-107.0
X234.5Y-90.0
X237.0Y-124.0
X239.0Y-141.0
X241.5Y-90.0
X243.5Y-107.0
X243.75Y-158.0
X246.0Y-141.0
X248.0Y-124.0
X250.5Y-107.0
X252.5Y-90.0
X254.75Y-158.0
X255.0Y-124.0
X257.0Y-141.0
X259.5Y-90.0
X261.5Y-107.0
X264.0Y-141.0
X266.0Y-124.0
X266.25Y-158.0
X268.5Y-107.0
X270.5Y-90.0
X273.0Y-124.0
X275.0Y-141.0
X277.25Y-158.0
X277.5Y-90.0
X279.5Y-107.0
X284.0Y-124.0
X286.5Y-107.0
X288.5Y-90.0
X288.7Y-158.0
X293.25Y-141.0
X297.5Y-107.0
X297.75Y-124.0
X299.7Y-158.0
X300.0Y-90.0
X304.25Y-141.0
X304.5Y-107.0
X308.75Y-124.0
X311.0Y-90.0
X315.5Y-107.0
X324.625Y-124.135
X324.625Y-140.495
X335.625Y-124.135
X335.625Y-140.495
T2
X62.0Y-93.8
X64.25Y-161.8
X66.5Y-110.8
X67.0Y-95.9
X68.75Y-127.8
X69.25Y-163.9
X71.5Y-112.9
X73.25Y-144.8
X73.75Y-129.9
X78.25Y-146.9
X80.0Y-93.8
X85.0Y-95.9
X86.725Y-161.85
X89.0Y-110.8
X91.725Y-163.95
X93.5Y-127.8
X94.0Y-112.9
X98.0Y-93.8
X98.5Y-129.9
X102.5Y-144.8
X103.0Y-95.9
X107.0Y-110.8
X107.5Y-146.9
X109.275Y-161.925
X111.5Y-127.8
X112.0Y-112.9
X114.275Y-164.025
X116.0Y-93.8
X116.5Y-129.9
X120.5Y-144.8
X121.0Y-95.9
X125.0Y-110.8
X125.5Y-146.9
X129.5Y-127.8
X130.0Y-112.9
X134.0Y-93.8
X134.5Y-129.9
X138.5Y-144.8
X139.0Y-95.9
X143.0Y-110.8
X143.5Y-146.9
X147.5Y-127.8
X148.0Y-112.9
X152.0Y-93.8
X152.5Y-129.9
X156.5Y-144.8
X157.0Y-95.9
X161.0Y-110.8
X161.5Y-146.9
X165.5Y-127.8
X166.0Y-112.9
X170.0Y-93.8
X170.5Y-129.9
X174.5Y-144.8
X175.0Y-95.9
X176.775Y-161.825
X179.0Y-110.8
X179.5Y-146.9
X181.775Y-163.925
X183.5Y-127.8
X184.0Y-112.9
X188.0Y-93.8
X188.5Y-129.9
X192.5Y-144.8
X193.0Y-95.9
X197.0Y-110.8
X197.5Y-146.9
X201.5Y-127.8
X202.0Y-112.9
X206.0Y-93.8
X206.5Y-129.9
X210.5Y-144.8
X211.0Y-95.9
X215.0Y-110.8
X215.5Y-146.9
X219.5Y-127.8
X220.0Y-112.9
X224.0Y-93.8
X224.5Y-129.9
X228.5Y-144.8
X229.0Y-95.9
X233.0Y-110.8
X233.5Y-146.9
X237.5Y-127.8
X238.0Y-112.9
X242.0Y-93.8
X242.5Y-129.9
X244.25Y-161.8
X246.5Y-144.8
X247.0Y-95.9
X249.25Y-163.9
X251.0Y-110.8
X251.5Y-146.9
X255.5Y-127.8
X256.0Y-112.9
X260.0Y-93.8
X260.5Y-129.9
X264.5Y-144.8
X265.0Y-95.9
X266.75Y-161.8
X269.0Y-110.8
X269.5Y-146.9
X271.75Y-163.9
X273.5Y-127.8
X274.0Y-112.9
X278.0Y-93.8
X278.5Y-129.9
X283.0Y-95.9
X287.0Y-110.8
X289.2Y-161.8
X292.0Y-112.9
X293.75Y-144.8
X294.2Y-163.9
X298.25Y-127.8
X298.75Y-146.9
X300.5Y-93.8
X303.25Y-129.9
X305.0Y-110.8
X305.5Y-95.9
X310.0Y-112.9
X325.125Y-127.935
X325.125Y-144.295
X330.125Y-130.035
X330.125Y-146.395
T3
X67.0Y-90.0
X69.25Y-158.0
X71.5Y-107.0
X73.75Y-124.0
X78.25Y-141.0
X85.0Y-90.0
X91.725Y-158.05
X94.0Y-107.0
X98.5Y-124.0
X103.0Y-90.0
X107.5Y-141.0
X112.0Y-107.0
X114.275Y-158.125
X116.5Y-124.0
X121.0Y-90.0
X125.5Y-141.0
X130.0Y-107.0
X134.5Y-124.0
X139.0Y-90.0
X143.5Y-141.0
X148.0Y-107.0
X152.5Y-124.0
X157.0Y-90.0
X161.5Y-141.0
X166.0Y-107.0
X170.5Y-124.0
X175.0Y-90.0
X179.5Y-141.0
X181.775Y-158.025
X184.0Y-107.0
X188.5Y-124.0
X193.0Y-90.0
X197.5Y-141.0
X202.0Y-107.0
X206.5Y-124.0
X211.0Y-90.0
X215.5Y-141.0
X220.0Y-107.0
X224.5Y-124.0
X229.0Y-90.0
X233.5Y-141.0
X238.0Y-107.0
X242.5Y-124.0
X247.0Y-90.0
X249.25Y-158.0
X251.5Y-141.0
X256.0Y-107.0
X260.5Y-124.0
X265.0Y-90.0
X269.5Y-141.0
X271.75Y-158.0
X274.0Y-107.0
X278.5Y-124.0
X283.0Y-90.0
X292.0Y-107.0
X294.2Y-158.0
X298.75Y-141.0
X303.25Y-124.0
X305.5Y-90.0
X310.0Y-107.0
X330.125Y-124.135
X330.125Y-140.495
M30
