M48
; DRILL file KiCad 10.0.1 date 2026-05-09T19:54:47
; FORMAT={-:-/ absolute / metric / decimal}
; #@! TF.CreationDate,2026-05-09T19:54:47+02:00
; #@! TF.GenerationSoftware,Kicad,Pcbnew,10.0.1
; #@! TF.FileFunction,Plated,1,2,PTH
FMAT,2
METRIC
; #@! TA.AperFunction,Plated,PTH,ViaDrill
T1C0.300
; #@! TA.AperFunction,Plated,PTH,ComponentDrill
T2C0.800
; #@! TA.AperFunction,Plated,PTH,ComponentDrill
T3C3.200
%
G90
G05
T1
X70.358Y-96.012
X72.898Y-163.83
X74.93Y-113.03
X77.216Y-129.794
X81.788Y-146.812
X88.392Y-96.012
X95.25Y-164.025
X97.536Y-113.03
X102.108Y-129.794
X106.426Y-96.012
X111.0Y-146.9
X115.57Y-113.03
X117.775Y-164.05
X120.142Y-129.794
X124.46Y-96.012
X129.032Y-146.812
X133.604Y-113.03
X138.176Y-129.794
X142.494Y-96.012
X147.066Y-146.812
X151.638Y-113.03
X155.956Y-129.794
X160.528Y-96.012
X165.1Y-146.812
X169.672Y-113.03
X173.99Y-129.794
X178.562Y-96.012
X183.134Y-146.812
X185.42Y-163.83
X187.452Y-113.03
X192.024Y-129.794
X196.596Y-96.012
X200.914Y-146.812
X205.486Y-113.03
X210.058Y-129.794
X214.503Y-96.012
X218.948Y-146.812
X223.52Y-113.03
X228.092Y-129.794
X232.41Y-96.012
X236.982Y-147.066
X241.554Y-113.03
X246.126Y-129.794
X250.444Y-96.012
X252.73Y-163.83
X255.016Y-147.066
X259.588Y-113.03
X264.16Y-129.794
X268.478Y-96.012
X273.05Y-147.066
X275.336Y-163.83
X277.622Y-113.03
X281.94Y-129.794
X286.512Y-96.012
X295.656Y-113.03
X297.7Y-163.9
X302.26Y-146.812
X306.832Y-129.921
X308.991Y-95.885
X313.5Y-112.9
X333.625Y-130.035
X333.625Y-146.395
T2
X323.625Y-80.459
X323.625Y-82.999
X323.625Y-85.539
X323.625Y-88.079
X323.625Y-90.62
X323.625Y-93.159
X323.625Y-95.7
X323.625Y-98.239
X323.625Y-100.779
X326.165Y-100.779
X328.705Y-100.779
X331.245Y-100.779
X333.785Y-100.779
X336.325Y-100.779
X338.865Y-80.459
X338.865Y-82.999
X338.865Y-85.539
X338.865Y-88.079
X338.865Y-90.62
X338.865Y-93.159
X338.865Y-95.7
X338.865Y-98.239
X338.865Y-100.779
T3
X57.6Y-82.5
X57.6Y-165.5
X343.522Y-165.5
X344.702Y-81.325
M30
