%TF.GenerationSoftware,KiCad,Pcbnew,10.0.1*%
%TF.CreationDate,2026-05-19T15:07:23+02:00*%
%TF.ProjectId,mt-choc,6d742d63-686f-4632-9e6b-696361645f70,v1.0*%
%TF.SameCoordinates,Original*%
%TF.FileFunction,Soldermask,Bot*%
%TF.FilePolarity,Negative*%
%FSLAX46Y46*%
G04 Gerber Fmt 4.6, Leading zero omitted, Abs format (unit mm)*
G04 Created by KiCad (PCBNEW 10.0.1) date 2026-05-19 15:07:23*
%MOMM*%
%LPD*%
G01*
G04 APERTURE LIST*
G04 Aperture macros list*
%AMRoundRect*
0 Rectangle with rounded corners*
0 $1 Rounding radius*
0 $2 $3 $4 $5 $6 $7 $8 $9 X,Y pos of 4 corners*
0 Add a 4 corners polygon primitive as box body*
4,1,4,$2,$3,$4,$5,$6,$7,$8,$9,$2,$3,0*
0 Add four circle primitives for the rounded corners*
1,1,$1+$1,$2,$3*
1,1,$1+$1,$4,$5*
1,1,$1+$1,$6,$7*
1,1,$1+$1,$8,$9*
0 Add four rect primitives between the rounded corners*
20,1,$1+$1,$2,$3,$4,$5,0*
20,1,$1+$1,$4,$5,$6,$7,0*
20,1,$1+$1,$6,$7,$8,$9,0*
20,1,$1+$1,$8,$9,$2,$3,0*%
G04 Aperture macros list end*
%ADD10RoundRect,0.270000X-1.105000X-1.080000X1.105000X-1.080000X1.105000X1.080000X-1.105000X1.080000X0*%
%ADD11C,1.900000*%
%ADD12C,3.200000*%
%ADD13C,3.600000*%
%ADD14RoundRect,0.400000X-0.500000X-0.400000X0.500000X-0.400000X0.500000X0.400000X-0.500000X0.400000X0*%
%ADD15RoundRect,0.400000X0.500000X0.400000X-0.500000X0.400000X-0.500000X-0.400000X0.500000X-0.400000X0*%
%ADD16C,4.600000*%
G04 APERTURE END LIST*
D10*
%TO.C,SW64*%
X333950000Y-129900000D03*
X321950000Y-127700000D03*
D11*
X335950000Y-124000000D03*
D12*
X330450000Y-129900000D03*
D13*
X330450000Y-124000000D03*
D12*
X325450000Y-127800000D03*
D11*
X324950000Y-124000000D03*
%TD*%
D10*
%TO.C,SW66*%
X333975000Y-146925000D03*
X321975000Y-144725000D03*
D11*
X335975000Y-141025000D03*
D12*
X330475000Y-146925000D03*
D13*
X330475000Y-141025000D03*
D12*
X325475000Y-144825000D03*
D11*
X324975000Y-141025000D03*
%TD*%
%TO.C,SW51*%
X288700000Y-158000000D03*
D12*
X289200000Y-161800000D03*
D13*
X294200000Y-158000000D03*
D12*
X294200000Y-163900000D03*
D11*
X299700000Y-158000000D03*
D10*
X285700000Y-161700000D03*
X297700000Y-163900000D03*
%TD*%
D14*
%TO.C,D25*%
X158900000Y-85041665D03*
D15*
X155100000Y-85041665D03*
%TD*%
D14*
%TO.C,D12*%
X113900000Y-102041657D03*
D15*
X110100000Y-102041657D03*
%TD*%
D14*
%TO.C,D38*%
X217400000Y-136041641D03*
D15*
X213600000Y-136041641D03*
%TD*%
D11*
%TO.C,SW10*%
X86225000Y-158000000D03*
D12*
X86725000Y-161800000D03*
D13*
X91725000Y-158000000D03*
D12*
X91725000Y-163900000D03*
D11*
X97225000Y-158000000D03*
D10*
X83225000Y-161700000D03*
X95225000Y-163900000D03*
%TD*%
D14*
%TO.C,D1*%
X68900000Y-85041665D03*
D15*
X65100000Y-85041665D03*
%TD*%
D11*
%TO.C,SW39*%
X219000000Y-124000000D03*
D12*
X219500000Y-127800000D03*
D13*
X224500000Y-124000000D03*
D12*
X224500000Y-129900000D03*
D11*
X230000000Y-124000000D03*
D10*
X216000000Y-127700000D03*
X228000000Y-129900000D03*
%TD*%
D11*
%TO.C,SW33*%
X187500000Y-90000000D03*
D12*
X188000000Y-93800000D03*
D13*
X193000000Y-90000000D03*
D12*
X193000000Y-95900000D03*
D11*
X198500000Y-90000000D03*
D10*
X184500000Y-93700000D03*
X196500000Y-95900000D03*
%TD*%
D11*
%TO.C,SW40*%
X228000000Y-141000000D03*
D12*
X228500000Y-144800000D03*
D13*
X233500000Y-141000000D03*
D12*
X233500000Y-146900000D03*
D11*
X239000000Y-141000000D03*
D10*
X225000000Y-144700000D03*
X237000000Y-146900000D03*
%TD*%
D14*
%TO.C,D50*%
X257900000Y-102041657D03*
D15*
X254100000Y-102041657D03*
%TD*%
D14*
%TO.C,D11*%
X104900000Y-85041665D03*
D15*
X101100000Y-85041665D03*
%TD*%
D11*
%TO.C,SW18*%
X129000000Y-124000000D03*
D12*
X129500000Y-127800000D03*
D13*
X134500000Y-124000000D03*
D12*
X134500000Y-129900000D03*
D11*
X140000000Y-124000000D03*
D10*
X126000000Y-127700000D03*
X138000000Y-129900000D03*
%TD*%
D11*
%TO.C,SW44*%
X237000000Y-124000000D03*
D12*
X237500000Y-127800000D03*
D13*
X242500000Y-124000000D03*
D12*
X242500000Y-129900000D03*
D11*
X248000000Y-124000000D03*
D10*
X234000000Y-127700000D03*
X246000000Y-129900000D03*
%TD*%
D14*
%TO.C,D18*%
X136400000Y-119041649D03*
D15*
X132600000Y-119041649D03*
%TD*%
D14*
%TO.C,D9*%
X109400000Y-136041641D03*
D15*
X105600000Y-136041641D03*
%TD*%
D11*
%TO.C,SW65*%
X176150000Y-158025000D03*
D12*
X176650000Y-161825000D03*
D13*
X181650000Y-158025000D03*
D12*
X181650000Y-163925000D03*
D11*
X187150000Y-158025000D03*
D10*
X173150000Y-161725000D03*
X185150000Y-163925000D03*
%TD*%
D14*
%TO.C,D55*%
X275900000Y-102041657D03*
D15*
X272100000Y-102041657D03*
%TD*%
D14*
%TO.C,D61*%
X305150000Y-119041649D03*
D15*
X301350000Y-119041649D03*
%TD*%
D16*
%TO.C,H4*%
X344702400Y-81325000D03*
%TD*%
D11*
%TO.C,SW36*%
X210000000Y-141000000D03*
D12*
X210500000Y-144800000D03*
D13*
X215500000Y-141000000D03*
D12*
X215500000Y-146900000D03*
D11*
X221000000Y-141000000D03*
D10*
X207000000Y-144700000D03*
X219000000Y-146900000D03*
%TD*%
D14*
%TO.C,D40*%
X221900000Y-102041657D03*
D15*
X218100000Y-102041657D03*
%TD*%
D14*
%TO.C,D10*%
X93550000Y-153375000D03*
D15*
X89750000Y-153375000D03*
%TD*%
D11*
%TO.C,SW63*%
X304500000Y-107000000D03*
D12*
X305000000Y-110800000D03*
D13*
X310000000Y-107000000D03*
D12*
X310000000Y-112900000D03*
D11*
X315500000Y-107000000D03*
D10*
X301500000Y-110700000D03*
X313500000Y-112900000D03*
%TD*%
D11*
%TO.C,SW25*%
X151500000Y-90000000D03*
D12*
X152000000Y-93800000D03*
D13*
X157000000Y-90000000D03*
D12*
X157000000Y-95900000D03*
D11*
X162500000Y-90000000D03*
D10*
X148500000Y-93700000D03*
X160500000Y-95900000D03*
%TD*%
D16*
%TO.C,H3*%
X343521600Y-165500000D03*
%TD*%
D14*
%TO.C,D66*%
X332200000Y-119325000D03*
D15*
X328400000Y-119325000D03*
%TD*%
D11*
%TO.C,SW16*%
X115500000Y-90000000D03*
D12*
X116000000Y-93800000D03*
D13*
X121000000Y-90000000D03*
D12*
X121000000Y-95900000D03*
D11*
X126500000Y-90000000D03*
D10*
X112500000Y-93700000D03*
X124500000Y-95900000D03*
%TD*%
D14*
%TO.C,D3*%
X75650000Y-119041649D03*
D15*
X71850000Y-119041649D03*
%TD*%
D14*
%TO.C,D14*%
X127400000Y-136041641D03*
D15*
X123600000Y-136041641D03*
%TD*%
D16*
%TO.C,H1*%
X57600000Y-82500000D03*
%TD*%
D14*
%TO.C,D28*%
X181400000Y-136041641D03*
D15*
X177600000Y-136041641D03*
%TD*%
D14*
%TO.C,D7*%
X95900000Y-102041657D03*
D15*
X92100000Y-102041657D03*
%TD*%
D11*
%TO.C,SW41*%
X243750000Y-158000000D03*
D12*
X244250000Y-161800000D03*
D13*
X249250000Y-158000000D03*
D12*
X249250000Y-163900000D03*
D11*
X254750000Y-158000000D03*
D10*
X240750000Y-161700000D03*
X252750000Y-163900000D03*
%TD*%
D14*
%TO.C,D47*%
X253400000Y-136041641D03*
D15*
X249600000Y-136041641D03*
%TD*%
D14*
%TO.C,D57*%
X300650000Y-136041641D03*
D15*
X296850000Y-136041641D03*
%TD*%
D11*
%TO.C,SW38*%
X214500000Y-107000000D03*
D12*
X215000000Y-110800000D03*
D13*
X220000000Y-107000000D03*
D12*
X220000000Y-112900000D03*
D11*
X225500000Y-107000000D03*
D10*
X211500000Y-110700000D03*
X223500000Y-112900000D03*
%TD*%
D11*
%TO.C,SW62*%
X300000000Y-90000000D03*
D12*
X300500000Y-93800000D03*
D13*
X305500000Y-90000000D03*
D12*
X305500000Y-95900000D03*
D11*
X311000000Y-90000000D03*
D10*
X297000000Y-93700000D03*
X309000000Y-95900000D03*
%TD*%
D11*
%TO.C,SW26*%
X160500000Y-107000000D03*
D12*
X161000000Y-110800000D03*
D13*
X166000000Y-107000000D03*
D12*
X166000000Y-112900000D03*
D11*
X171500000Y-107000000D03*
D10*
X157500000Y-110700000D03*
X169500000Y-112900000D03*
%TD*%
D11*
%TO.C,SW48*%
X250500000Y-107000000D03*
D12*
X251000000Y-110800000D03*
D13*
X256000000Y-107000000D03*
D12*
X256000000Y-112900000D03*
D11*
X261500000Y-107000000D03*
D10*
X247500000Y-110700000D03*
X259500000Y-112900000D03*
%TD*%
D14*
%TO.C,D16*%
X122900000Y-85041665D03*
D15*
X119100000Y-85041665D03*
%TD*%
D11*
%TO.C,SW11*%
X97500000Y-90000000D03*
D12*
X98000000Y-93800000D03*
D13*
X103000000Y-90000000D03*
D12*
X103000000Y-95900000D03*
D11*
X108500000Y-90000000D03*
D10*
X94500000Y-93700000D03*
X106500000Y-95900000D03*
%TD*%
D11*
%TO.C,U1*%
X323625000Y-80459500D03*
X323625000Y-82999500D03*
X323625000Y-85539500D03*
X323625000Y-88079500D03*
X323625000Y-90619500D03*
X323625000Y-93159500D03*
X323625000Y-95699500D03*
X323625000Y-98239500D03*
X323625000Y-100779500D03*
X338865000Y-80459500D03*
X338865000Y-82999500D03*
X338865000Y-85539500D03*
X338865000Y-88079500D03*
X338865000Y-90619500D03*
X338865000Y-93159500D03*
X338865000Y-95699500D03*
X338865000Y-98239500D03*
X338865000Y-100779500D03*
X326165000Y-100779500D03*
X328705000Y-100779500D03*
X331245000Y-100779500D03*
X333785000Y-100779500D03*
X336325000Y-100779500D03*
%TD*%
D14*
%TO.C,D19*%
X145400000Y-136041641D03*
D15*
X141600000Y-136041641D03*
%TD*%
D14*
%TO.C,D42*%
X235400000Y-136041641D03*
D15*
X231600000Y-136041641D03*
%TD*%
D14*
%TO.C,D44*%
X230900000Y-85041665D03*
D15*
X227100000Y-85041665D03*
%TD*%
D11*
%TO.C,SW21*%
X142500000Y-107000000D03*
D12*
X143000000Y-110800000D03*
D13*
X148000000Y-107000000D03*
D12*
X148000000Y-112900000D03*
D11*
X153500000Y-107000000D03*
D10*
X139500000Y-110700000D03*
X151500000Y-112900000D03*
%TD*%
D11*
%TO.C,SW54*%
X273000000Y-124000000D03*
D12*
X273500000Y-127800000D03*
D13*
X278500000Y-124000000D03*
D12*
X278500000Y-129900000D03*
D11*
X284000000Y-124000000D03*
D10*
X270000000Y-127700000D03*
X282000000Y-129900000D03*
%TD*%
D14*
%TO.C,D45*%
X239900000Y-102041657D03*
D15*
X236100000Y-102041657D03*
%TD*%
D11*
%TO.C,SW57*%
X277500000Y-90000000D03*
D12*
X278000000Y-93800000D03*
D13*
X283000000Y-90000000D03*
D12*
X283000000Y-95900000D03*
D11*
X288500000Y-90000000D03*
D10*
X274500000Y-93700000D03*
X286500000Y-95900000D03*
%TD*%
D14*
%TO.C,D29*%
X183650000Y-153250000D03*
D15*
X179850000Y-153250000D03*
%TD*%
D14*
%TO.C,D51*%
X262400000Y-119041649D03*
D15*
X258600000Y-119041649D03*
%TD*%
D14*
%TO.C,D15*%
X116175000Y-153450000D03*
D15*
X112375000Y-153450000D03*
%TD*%
D14*
%TO.C,D21*%
X149900000Y-102041657D03*
D15*
X146100000Y-102041657D03*
%TD*%
D14*
%TO.C,D60*%
X293900000Y-102041657D03*
D15*
X290100000Y-102041657D03*
%TD*%
D11*
%TO.C,SW8*%
X93000000Y-124000000D03*
D12*
X93500000Y-127800000D03*
D13*
X98500000Y-124000000D03*
D12*
X98500000Y-129900000D03*
D11*
X104000000Y-124000000D03*
D10*
X90000000Y-127700000D03*
X102000000Y-129900000D03*
%TD*%
D11*
%TO.C,SW3*%
X68250000Y-124000000D03*
D12*
X68750000Y-127800000D03*
D13*
X73750000Y-124000000D03*
D12*
X73750000Y-129900000D03*
D11*
X79250000Y-124000000D03*
D10*
X65250000Y-127700000D03*
X77250000Y-129900000D03*
%TD*%
D14*
%TO.C,D41*%
X226400000Y-119041649D03*
D15*
X222600000Y-119041649D03*
%TD*%
D14*
%TO.C,D31*%
X176900000Y-85041665D03*
D15*
X173100000Y-85041665D03*
%TD*%
D11*
%TO.C,SW35*%
X201000000Y-124000000D03*
D12*
X201500000Y-127800000D03*
D13*
X206500000Y-124000000D03*
D12*
X206500000Y-129900000D03*
D11*
X212000000Y-124000000D03*
D10*
X198000000Y-127700000D03*
X210000000Y-129900000D03*
%TD*%
D14*
%TO.C,D39*%
X212900000Y-85041665D03*
D15*
X209100000Y-85041665D03*
%TD*%
D11*
%TO.C,SW9*%
X102000000Y-141000000D03*
D12*
X102500000Y-144800000D03*
D13*
X107500000Y-141000000D03*
D12*
X107500000Y-146900000D03*
D11*
X113000000Y-141000000D03*
D10*
X99000000Y-144700000D03*
X111000000Y-146900000D03*
%TD*%
D14*
%TO.C,D52*%
X271400000Y-136041641D03*
D15*
X267600000Y-136041641D03*
%TD*%
D11*
%TO.C,SW4*%
X72750000Y-141000000D03*
D12*
X73250000Y-144800000D03*
D13*
X78250000Y-141000000D03*
D12*
X78250000Y-146900000D03*
D11*
X83750000Y-141000000D03*
D10*
X69750000Y-144700000D03*
X81750000Y-146900000D03*
%TD*%
D14*
%TO.C,D26*%
X167900000Y-102041657D03*
D15*
X164100000Y-102041657D03*
%TD*%
D11*
%TO.C,SW49*%
X255000000Y-124000000D03*
D12*
X255500000Y-127800000D03*
D13*
X260500000Y-124000000D03*
D12*
X260500000Y-129900000D03*
D11*
X266000000Y-124000000D03*
D10*
X252000000Y-127700000D03*
X264000000Y-129900000D03*
%TD*%
D14*
%TO.C,D49*%
X248900000Y-85041665D03*
D15*
X245100000Y-85041665D03*
%TD*%
D11*
%TO.C,SW42*%
X223500000Y-90000000D03*
D12*
X224000000Y-93800000D03*
D13*
X229000000Y-90000000D03*
D12*
X229000000Y-95900000D03*
D11*
X234500000Y-90000000D03*
D10*
X220500000Y-93700000D03*
X232500000Y-95900000D03*
%TD*%
D14*
%TO.C,D33*%
X190400000Y-119041649D03*
D15*
X186600000Y-119041649D03*
%TD*%
D11*
%TO.C,SW53*%
X268500000Y-107000000D03*
D12*
X269000000Y-110800000D03*
D13*
X274000000Y-107000000D03*
D12*
X274000000Y-112900000D03*
D11*
X279500000Y-107000000D03*
D10*
X265500000Y-110700000D03*
X277500000Y-112900000D03*
%TD*%
D14*
%TO.C,D37*%
X208400000Y-119041649D03*
D15*
X204600000Y-119041649D03*
%TD*%
D11*
%TO.C,SW1*%
X61500000Y-90000000D03*
D12*
X62000000Y-93800000D03*
D13*
X67000000Y-90000000D03*
D12*
X67000000Y-95900000D03*
D11*
X72500000Y-90000000D03*
D10*
X58500000Y-93700000D03*
X70500000Y-95900000D03*
%TD*%
D16*
%TO.C,H2*%
X57600000Y-165500000D03*
%TD*%
D11*
%TO.C,SW43*%
X232500000Y-107000000D03*
D12*
X233000000Y-110800000D03*
D13*
X238000000Y-107000000D03*
D12*
X238000000Y-112900000D03*
D11*
X243500000Y-107000000D03*
D10*
X229500000Y-110700000D03*
X241500000Y-112900000D03*
%TD*%
D14*
%TO.C,D20*%
X140900000Y-85041665D03*
D15*
X137100000Y-85041665D03*
%TD*%
D11*
%TO.C,SW58*%
X286500000Y-107000000D03*
D12*
X287000000Y-110800000D03*
D13*
X292000000Y-107000000D03*
D12*
X292000000Y-112900000D03*
D11*
X297500000Y-107000000D03*
D10*
X283500000Y-110700000D03*
X295500000Y-112900000D03*
%TD*%
D14*
%TO.C,D48*%
X273650000Y-153041633D03*
D15*
X269850000Y-153041633D03*
%TD*%
D14*
%TO.C,D36*%
X203900000Y-102041657D03*
D15*
X200100000Y-102041657D03*
%TD*%
D11*
%TO.C,SW59*%
X297750000Y-124000000D03*
D12*
X298250000Y-127800000D03*
D13*
X303250000Y-124000000D03*
D12*
X303250000Y-129900000D03*
D11*
X308750000Y-124000000D03*
D10*
X294750000Y-127700000D03*
X306750000Y-129900000D03*
%TD*%
D11*
%TO.C,SW29*%
X169500000Y-90000000D03*
D12*
X170000000Y-93800000D03*
D13*
X175000000Y-90000000D03*
D12*
X175000000Y-95900000D03*
D11*
X180500000Y-90000000D03*
D10*
X166500000Y-93700000D03*
X178500000Y-95900000D03*
%TD*%
D14*
%TO.C,D6*%
X86900000Y-85041665D03*
D15*
X83100000Y-85041665D03*
%TD*%
D11*
%TO.C,SW7*%
X88500000Y-107000000D03*
D12*
X89000000Y-110800000D03*
D13*
X94000000Y-107000000D03*
D12*
X94000000Y-112900000D03*
D11*
X99500000Y-107000000D03*
D10*
X85500000Y-110700000D03*
X97500000Y-112900000D03*
%TD*%
D11*
%TO.C,SW34*%
X196500000Y-107000000D03*
D12*
X197000000Y-110800000D03*
D13*
X202000000Y-107000000D03*
D12*
X202000000Y-112900000D03*
D11*
X207500000Y-107000000D03*
D10*
X193500000Y-110700000D03*
X205500000Y-112900000D03*
%TD*%
D14*
%TO.C,D67*%
X332300000Y-136325000D03*
D15*
X328500000Y-136325000D03*
%TD*%
D11*
%TO.C,SW22*%
X147000000Y-124000000D03*
D12*
X147500000Y-127800000D03*
D13*
X152500000Y-124000000D03*
D12*
X152500000Y-129900000D03*
D11*
X158000000Y-124000000D03*
D10*
X144000000Y-127700000D03*
X156000000Y-129900000D03*
%TD*%
D11*
%TO.C,SW15*%
X108682500Y-158000000D03*
D12*
X109182500Y-161800000D03*
D13*
X114182500Y-158000000D03*
D12*
X114182500Y-163900000D03*
D11*
X119682500Y-158000000D03*
D10*
X105682500Y-161700000D03*
X117682500Y-163900000D03*
%TD*%
D14*
%TO.C,D43*%
X251150000Y-153041633D03*
D15*
X247350000Y-153041633D03*
%TD*%
D11*
%TO.C,SW6*%
X79500000Y-90000000D03*
D12*
X80000000Y-93800000D03*
D13*
X85000000Y-90000000D03*
D12*
X85000000Y-95900000D03*
D11*
X90500000Y-90000000D03*
D10*
X76500000Y-93700000D03*
X88500000Y-95900000D03*
%TD*%
D11*
%TO.C,SW30*%
X178500000Y-107000000D03*
D12*
X179000000Y-110800000D03*
D13*
X184000000Y-107000000D03*
D12*
X184000000Y-112900000D03*
D11*
X189500000Y-107000000D03*
D10*
X175500000Y-110700000D03*
X187500000Y-112900000D03*
%TD*%
D11*
%TO.C,SW37*%
X205500000Y-90000000D03*
D12*
X206000000Y-93800000D03*
D13*
X211000000Y-90000000D03*
D12*
X211000000Y-95900000D03*
D11*
X216500000Y-90000000D03*
D10*
X202500000Y-93700000D03*
X214500000Y-95900000D03*
%TD*%
D14*
%TO.C,D53*%
X296150000Y-153400000D03*
D15*
X292350000Y-153400000D03*
%TD*%
D11*
%TO.C,SW23*%
X156000000Y-141000000D03*
D12*
X156500000Y-144800000D03*
D13*
X161500000Y-141000000D03*
D12*
X161500000Y-146900000D03*
D11*
X167000000Y-141000000D03*
D10*
X153000000Y-144700000D03*
X165000000Y-146900000D03*
%TD*%
D11*
%TO.C,SW31*%
X183000000Y-124000000D03*
D12*
X183500000Y-127800000D03*
D13*
X188500000Y-124000000D03*
D12*
X188500000Y-129900000D03*
D11*
X194000000Y-124000000D03*
D10*
X180000000Y-127700000D03*
X192000000Y-129900000D03*
%TD*%
D11*
%TO.C,SW46*%
X266250000Y-158000000D03*
D12*
X266750000Y-161800000D03*
D13*
X271750000Y-158000000D03*
D12*
X271750000Y-163900000D03*
D11*
X277250000Y-158000000D03*
D10*
X263250000Y-161700000D03*
X275250000Y-163900000D03*
%TD*%
D14*
%TO.C,D64*%
X307400000Y-85041665D03*
D15*
X303600000Y-85041665D03*
%TD*%
D11*
%TO.C,SW14*%
X120000000Y-141000000D03*
D12*
X120500000Y-144800000D03*
D13*
X125500000Y-141000000D03*
D12*
X125500000Y-146900000D03*
D11*
X131000000Y-141000000D03*
D10*
X117000000Y-144700000D03*
X129000000Y-146900000D03*
%TD*%
D14*
%TO.C,D54*%
X266900000Y-85041665D03*
D15*
X263100000Y-85041665D03*
%TD*%
D14*
%TO.C,D46*%
X244400000Y-119041649D03*
D15*
X240600000Y-119041649D03*
%TD*%
D11*
%TO.C,SW50*%
X264000000Y-141000000D03*
D12*
X264500000Y-144800000D03*
D13*
X269500000Y-141000000D03*
D12*
X269500000Y-146900000D03*
D11*
X275000000Y-141000000D03*
D10*
X261000000Y-144700000D03*
X273000000Y-146900000D03*
%TD*%
D14*
%TO.C,D5*%
X71150000Y-153041633D03*
D15*
X67350000Y-153041633D03*
%TD*%
D11*
%TO.C,SW27*%
X165000000Y-124000000D03*
D12*
X165500000Y-127800000D03*
D13*
X170500000Y-124000000D03*
D12*
X170500000Y-129900000D03*
D11*
X176000000Y-124000000D03*
D10*
X162000000Y-127700000D03*
X174000000Y-129900000D03*
%TD*%
D11*
%TO.C,SW13*%
X111000000Y-124000000D03*
D12*
X111500000Y-127800000D03*
D13*
X116500000Y-124000000D03*
D12*
X116500000Y-129900000D03*
D11*
X122000000Y-124000000D03*
D10*
X108000000Y-127700000D03*
X120000000Y-129900000D03*
%TD*%
D11*
%TO.C,SW17*%
X124500000Y-107000000D03*
D12*
X125000000Y-110800000D03*
D13*
X130000000Y-107000000D03*
D12*
X130000000Y-112900000D03*
D11*
X135500000Y-107000000D03*
D10*
X121500000Y-110700000D03*
X133500000Y-112900000D03*
%TD*%
D11*
%TO.C,SW45*%
X246000000Y-141000000D03*
D12*
X246500000Y-144800000D03*
D13*
X251500000Y-141000000D03*
D12*
X251500000Y-146900000D03*
D11*
X257000000Y-141000000D03*
D10*
X243000000Y-144700000D03*
X255000000Y-146900000D03*
%TD*%
D14*
%TO.C,D22*%
X154400000Y-119041649D03*
D15*
X150600000Y-119041649D03*
%TD*%
D14*
%TO.C,D65*%
X311900000Y-102041657D03*
D15*
X308100000Y-102041657D03*
%TD*%
D14*
%TO.C,D4*%
X80150000Y-136041641D03*
D15*
X76350000Y-136041641D03*
%TD*%
D11*
%TO.C,SW2*%
X66000000Y-107000000D03*
D12*
X66500000Y-110800000D03*
D13*
X71500000Y-107000000D03*
D12*
X71500000Y-112900000D03*
D11*
X77000000Y-107000000D03*
D10*
X63000000Y-110700000D03*
X75000000Y-112900000D03*
%TD*%
D14*
%TO.C,D2*%
X73400000Y-102041657D03*
D15*
X69600000Y-102041657D03*
%TD*%
D14*
%TO.C,D17*%
X131900000Y-102041657D03*
D15*
X128100000Y-102041657D03*
%TD*%
D11*
%TO.C,SW5*%
X63750000Y-158000000D03*
D12*
X64250000Y-161800000D03*
D13*
X69250000Y-158000000D03*
D12*
X69250000Y-163900000D03*
D11*
X74750000Y-158000000D03*
D10*
X60750000Y-161700000D03*
X72750000Y-163900000D03*
%TD*%
D14*
%TO.C,D32*%
X185900000Y-102041657D03*
D15*
X182100000Y-102041657D03*
%TD*%
D11*
%TO.C,SW12*%
X106500000Y-107000000D03*
D12*
X107000000Y-110800000D03*
D13*
X112000000Y-107000000D03*
D12*
X112000000Y-112900000D03*
D11*
X117500000Y-107000000D03*
D10*
X103500000Y-110700000D03*
X115500000Y-112900000D03*
%TD*%
D14*
%TO.C,D8*%
X100400000Y-119041649D03*
D15*
X96600000Y-119041649D03*
%TD*%
D14*
%TO.C,D35*%
X194900000Y-85041665D03*
D15*
X191100000Y-85041665D03*
%TD*%
D14*
%TO.C,D13*%
X118400000Y-119041649D03*
D15*
X114600000Y-119041649D03*
%TD*%
D11*
%TO.C,SW32*%
X192000000Y-141000000D03*
D12*
X192500000Y-144800000D03*
D13*
X197500000Y-141000000D03*
D12*
X197500000Y-146900000D03*
D11*
X203000000Y-141000000D03*
D10*
X189000000Y-144700000D03*
X201000000Y-146900000D03*
%TD*%
D14*
%TO.C,D56*%
X280400000Y-119041649D03*
D15*
X276600000Y-119041649D03*
%TD*%
D14*
%TO.C,D23*%
X163400000Y-136041641D03*
D15*
X159600000Y-136041641D03*
%TD*%
D11*
%TO.C,SW55*%
X293250000Y-141000000D03*
D12*
X293750000Y-144800000D03*
D13*
X298750000Y-141000000D03*
D12*
X298750000Y-146900000D03*
D11*
X304250000Y-141000000D03*
D10*
X290250000Y-144700000D03*
X302250000Y-146900000D03*
%TD*%
D11*
%TO.C,SW47*%
X241500000Y-90000000D03*
D12*
X242000000Y-93800000D03*
D13*
X247000000Y-90000000D03*
D12*
X247000000Y-95900000D03*
D11*
X252500000Y-90000000D03*
D10*
X238500000Y-93700000D03*
X250500000Y-95900000D03*
%TD*%
D14*
%TO.C,D27*%
X172400000Y-119041649D03*
D15*
X168600000Y-119041649D03*
%TD*%
D11*
%TO.C,SW28*%
X174000000Y-141000000D03*
D12*
X174500000Y-144800000D03*
D13*
X179500000Y-141000000D03*
D12*
X179500000Y-146900000D03*
D11*
X185000000Y-141000000D03*
D10*
X171000000Y-144700000D03*
X183000000Y-146900000D03*
%TD*%
D11*
%TO.C,SW20*%
X133500000Y-90000000D03*
D12*
X134000000Y-93800000D03*
D13*
X139000000Y-90000000D03*
D12*
X139000000Y-95900000D03*
D11*
X144500000Y-90000000D03*
D10*
X130500000Y-93700000D03*
X142500000Y-95900000D03*
%TD*%
D11*
%TO.C,SW52*%
X259500000Y-90000000D03*
D12*
X260000000Y-93800000D03*
D13*
X265000000Y-90000000D03*
D12*
X265000000Y-95900000D03*
D11*
X270500000Y-90000000D03*
D10*
X256500000Y-93700000D03*
X268500000Y-95900000D03*
%TD*%
D14*
%TO.C,D59*%
X284900000Y-85041665D03*
D15*
X281100000Y-85041665D03*
%TD*%
D11*
%TO.C,SW19*%
X138000000Y-141000000D03*
D12*
X138500000Y-144800000D03*
D13*
X143500000Y-141000000D03*
D12*
X143500000Y-146900000D03*
D11*
X149000000Y-141000000D03*
D10*
X135000000Y-144700000D03*
X147000000Y-146900000D03*
%TD*%
D14*
%TO.C,D34*%
X199400000Y-136041641D03*
D15*
X195600000Y-136041641D03*
%TD*%
M02*
