%TF.GenerationSoftware,KiCad,Pcbnew,10.0.1*%
%TF.CreationDate,2026-05-16T07:09:10+02:00*%
%TF.ProjectId,mt-choc,6d742d63-686f-4632-9e6b-696361645f70,v1.0*%
%TF.SameCoordinates,Original*%
%TF.FileFunction,Soldermask,Top*%
%TF.FilePolarity,Negative*%
%FSLAX46Y46*%
G04 Gerber Fmt 4.6, Leading zero omitted, Abs format (unit mm)*
G04 Created by KiCad (PCBNEW 10.0.1) date 2026-05-16 07:09:10*
%MOMM*%
%LPD*%
G01*
G04 APERTURE LIST*
G04 Aperture macros list*
%AMRoundRect*
0 Rectangle with rounded corners*
0 $1 Rounding radius*
0 $2 $3 $4 $5 $6 $7 $8 $9 X,Y pos of 4 corners*
0 Add a 4 corners polygon primitive as box body*
4,1,4,$2,$3,$4,$5,$6,$7,$8,$9,$2,$3,0*
0 Add four circle primitives for the rounded corners*
1,1,$1+$1,$2,$3*
1,1,$1+$1,$4,$5*
1,1,$1+$1,$6,$7*
1,1,$1+$1,$8,$9*
0 Add four rect primitives between the rounded corners*
20,1,$1+$1,$2,$3,$4,$5,0*
20,1,$1+$1,$4,$5,$6,$7,0*
20,1,$1+$1,$6,$7,$8,$9,0*
20,1,$1+$1,$8,$9,$2,$3,0*%
G04 Aperture macros list end*
%ADD10C,1.900000*%
%ADD11C,3.200000*%
%ADD12C,3.600000*%
%ADD13C,4.600000*%
%ADD14RoundRect,0.100000X-1.750000X-0.850000X1.750000X-0.850000X1.750000X0.850000X-1.750000X0.850000X0*%
%ADD15RoundRect,0.100000X0.850000X-1.750000X0.850000X1.750000X-0.850000X1.750000X-0.850000X-1.750000X0*%
G04 APERTURE END LIST*
D10*
%TO.C,SW51*%
X288700000Y-158000000D03*
D11*
X289200000Y-161800000D03*
D12*
X294200000Y-158000000D03*
D11*
X294200000Y-163900000D03*
D10*
X299700000Y-158000000D03*
%TD*%
%TO.C,SW10*%
X86225000Y-158050000D03*
D11*
X86725000Y-161850000D03*
D12*
X91725000Y-158050000D03*
D11*
X91725000Y-163950000D03*
D10*
X97225000Y-158050000D03*
%TD*%
%TO.C,SW39*%
X219000000Y-124000000D03*
D11*
X219500000Y-127800000D03*
D12*
X224500000Y-124000000D03*
D11*
X224500000Y-129900000D03*
D10*
X230000000Y-124000000D03*
%TD*%
%TO.C,SW33*%
X187500000Y-90000000D03*
D11*
X188000000Y-93800000D03*
D12*
X193000000Y-90000000D03*
D11*
X193000000Y-95900000D03*
D10*
X198500000Y-90000000D03*
%TD*%
%TO.C,SW40*%
X228000000Y-141000000D03*
D11*
X228500000Y-144800000D03*
D12*
X233500000Y-141000000D03*
D11*
X233500000Y-146900000D03*
D10*
X239000000Y-141000000D03*
%TD*%
%TO.C,SW18*%
X129000000Y-124000000D03*
D11*
X129500000Y-127800000D03*
D12*
X134500000Y-124000000D03*
D11*
X134500000Y-129900000D03*
D10*
X140000000Y-124000000D03*
%TD*%
%TO.C,SW44*%
X237000000Y-124000000D03*
D11*
X237500000Y-127800000D03*
D12*
X242500000Y-124000000D03*
D11*
X242500000Y-129900000D03*
D10*
X248000000Y-124000000D03*
%TD*%
%TO.C,SW65*%
X176275000Y-158025000D03*
D11*
X176775000Y-161825000D03*
D12*
X181775000Y-158025000D03*
D11*
X181775000Y-163925000D03*
D10*
X187275000Y-158025000D03*
%TD*%
D13*
%TO.C,H4*%
X344702400Y-81325000D03*
%TD*%
D10*
%TO.C,SW36*%
X210000000Y-141000000D03*
D11*
X210500000Y-144800000D03*
D12*
X215500000Y-141000000D03*
D11*
X215500000Y-146900000D03*
D10*
X221000000Y-141000000D03*
%TD*%
%TO.C,SW63*%
X304500000Y-107000000D03*
D11*
X305000000Y-110800000D03*
D12*
X310000000Y-107000000D03*
D11*
X310000000Y-112900000D03*
D10*
X315500000Y-107000000D03*
%TD*%
%TO.C,SW25*%
X151500000Y-90000000D03*
D11*
X152000000Y-93800000D03*
D12*
X157000000Y-90000000D03*
D11*
X157000000Y-95900000D03*
D10*
X162500000Y-90000000D03*
%TD*%
D13*
%TO.C,H3*%
X343521600Y-165500000D03*
%TD*%
D10*
%TO.C,SW16*%
X115500000Y-90000000D03*
D11*
X116000000Y-93800000D03*
D12*
X121000000Y-90000000D03*
D11*
X121000000Y-95900000D03*
D10*
X126500000Y-90000000D03*
%TD*%
D13*
%TO.C,H1*%
X57600000Y-82500000D03*
%TD*%
D10*
%TO.C,SW41*%
X243750000Y-158000000D03*
D11*
X244250000Y-161800000D03*
D12*
X249250000Y-158000000D03*
D11*
X249250000Y-163900000D03*
D10*
X254750000Y-158000000D03*
%TD*%
%TO.C,SW38*%
X214500000Y-107000000D03*
D11*
X215000000Y-110800000D03*
D12*
X220000000Y-107000000D03*
D11*
X220000000Y-112900000D03*
D10*
X225500000Y-107000000D03*
%TD*%
%TO.C,SW62*%
X300000000Y-90000000D03*
D11*
X300500000Y-93800000D03*
D12*
X305500000Y-90000000D03*
D11*
X305500000Y-95900000D03*
D10*
X311000000Y-90000000D03*
%TD*%
%TO.C,SW26*%
X160500000Y-107000000D03*
D11*
X161000000Y-110800000D03*
D12*
X166000000Y-107000000D03*
D11*
X166000000Y-112900000D03*
D10*
X171500000Y-107000000D03*
%TD*%
%TO.C,SW48*%
X250500000Y-107000000D03*
D11*
X251000000Y-110800000D03*
D12*
X256000000Y-107000000D03*
D11*
X256000000Y-112900000D03*
D10*
X261500000Y-107000000D03*
%TD*%
%TO.C,SW11*%
X97500000Y-90000000D03*
D11*
X98000000Y-93800000D03*
D12*
X103000000Y-90000000D03*
D11*
X103000000Y-95900000D03*
D10*
X108500000Y-90000000D03*
%TD*%
D14*
%TO.C,U1*%
X322725000Y-80459500D03*
D10*
X323625000Y-80459500D03*
D14*
X322725000Y-82999500D03*
D10*
X323625000Y-82999500D03*
D14*
X322725000Y-85539500D03*
D10*
X323625000Y-85539500D03*
D14*
X322725000Y-88079500D03*
D10*
X323625000Y-88079500D03*
D14*
X322725000Y-90619500D03*
D10*
X323625000Y-90619500D03*
D14*
X322775000Y-93159500D03*
D10*
X323625000Y-93159500D03*
D14*
X322775000Y-95699500D03*
D10*
X323625000Y-95699500D03*
D14*
X322775000Y-98239500D03*
D10*
X323625000Y-98239500D03*
D14*
X322775000Y-100779500D03*
D10*
X323625000Y-100779500D03*
X338865000Y-80459500D03*
D14*
X339765000Y-80459500D03*
D10*
X338865000Y-82999500D03*
D14*
X339765000Y-82999500D03*
D10*
X338865000Y-85539500D03*
D14*
X339765000Y-85539500D03*
D10*
X338865000Y-88079500D03*
D14*
X339765000Y-88079500D03*
D10*
X338865000Y-90619500D03*
D14*
X339765000Y-90619500D03*
D10*
X338865000Y-93159500D03*
D14*
X339765000Y-93159500D03*
D10*
X338865000Y-95699500D03*
D14*
X339765000Y-95699500D03*
D10*
X338865000Y-98239500D03*
D14*
X339765000Y-98239500D03*
D10*
X338865000Y-100779500D03*
D14*
X339765000Y-100779500D03*
D10*
X326165000Y-100779500D03*
D15*
X326165000Y-101679500D03*
D10*
X328705000Y-100779500D03*
D15*
X328705000Y-101629500D03*
D10*
X331245000Y-100779500D03*
D15*
X331245000Y-101629500D03*
D10*
X333785000Y-100779500D03*
D15*
X333785000Y-101629500D03*
D10*
X336325000Y-100779500D03*
D15*
X336325000Y-101629500D03*
%TD*%
D10*
%TO.C,SW64*%
X324625000Y-124135000D03*
D11*
X325125000Y-127935000D03*
D12*
X330125000Y-124135000D03*
D11*
X330125000Y-130035000D03*
D10*
X335625000Y-124135000D03*
%TD*%
%TO.C,SW21*%
X142500000Y-107000000D03*
D11*
X143000000Y-110800000D03*
D12*
X148000000Y-107000000D03*
D11*
X148000000Y-112900000D03*
D10*
X153500000Y-107000000D03*
%TD*%
%TO.C,SW54*%
X273000000Y-124000000D03*
D11*
X273500000Y-127800000D03*
D12*
X278500000Y-124000000D03*
D11*
X278500000Y-129900000D03*
D10*
X284000000Y-124000000D03*
%TD*%
%TO.C,SW57*%
X277500000Y-90000000D03*
D11*
X278000000Y-93800000D03*
D12*
X283000000Y-90000000D03*
D11*
X283000000Y-95900000D03*
D10*
X288500000Y-90000000D03*
%TD*%
%TO.C,SW8*%
X93000000Y-124000000D03*
D11*
X93500000Y-127800000D03*
D12*
X98500000Y-124000000D03*
D11*
X98500000Y-129900000D03*
D10*
X104000000Y-124000000D03*
%TD*%
%TO.C,SW3*%
X68250000Y-124000000D03*
D11*
X68750000Y-127800000D03*
D12*
X73750000Y-124000000D03*
D11*
X73750000Y-129900000D03*
D10*
X79250000Y-124000000D03*
%TD*%
%TO.C,SW35*%
X201000000Y-124000000D03*
D11*
X201500000Y-127800000D03*
D12*
X206500000Y-124000000D03*
D11*
X206500000Y-129900000D03*
D10*
X212000000Y-124000000D03*
%TD*%
%TO.C,SW9*%
X102000000Y-141000000D03*
D11*
X102500000Y-144800000D03*
D12*
X107500000Y-141000000D03*
D11*
X107500000Y-146900000D03*
D10*
X113000000Y-141000000D03*
%TD*%
%TO.C,SW4*%
X72750000Y-141000000D03*
D11*
X73250000Y-144800000D03*
D12*
X78250000Y-141000000D03*
D11*
X78250000Y-146900000D03*
D10*
X83750000Y-141000000D03*
%TD*%
%TO.C,SW49*%
X255000000Y-124000000D03*
D11*
X255500000Y-127800000D03*
D12*
X260500000Y-124000000D03*
D11*
X260500000Y-129900000D03*
D10*
X266000000Y-124000000D03*
%TD*%
%TO.C,SW42*%
X223500000Y-90000000D03*
D11*
X224000000Y-93800000D03*
D12*
X229000000Y-90000000D03*
D11*
X229000000Y-95900000D03*
D10*
X234500000Y-90000000D03*
%TD*%
%TO.C,SW53*%
X268500000Y-107000000D03*
D11*
X269000000Y-110800000D03*
D12*
X274000000Y-107000000D03*
D11*
X274000000Y-112900000D03*
D10*
X279500000Y-107000000D03*
%TD*%
%TO.C,SW1*%
X61500000Y-90000000D03*
D11*
X62000000Y-93800000D03*
D12*
X67000000Y-90000000D03*
D11*
X67000000Y-95900000D03*
D10*
X72500000Y-90000000D03*
%TD*%
D13*
%TO.C,H2*%
X57600000Y-165500000D03*
%TD*%
D10*
%TO.C,SW43*%
X232500000Y-107000000D03*
D11*
X233000000Y-110800000D03*
D12*
X238000000Y-107000000D03*
D11*
X238000000Y-112900000D03*
D10*
X243500000Y-107000000D03*
%TD*%
%TO.C,SW58*%
X286500000Y-107000000D03*
D11*
X287000000Y-110800000D03*
D12*
X292000000Y-107000000D03*
D11*
X292000000Y-112900000D03*
D10*
X297500000Y-107000000D03*
%TD*%
%TO.C,SW66*%
X324625000Y-140495000D03*
D11*
X325125000Y-144295000D03*
D12*
X330125000Y-140495000D03*
D11*
X330125000Y-146395000D03*
D10*
X335625000Y-140495000D03*
%TD*%
%TO.C,SW59*%
X297750000Y-124000000D03*
D11*
X298250000Y-127800000D03*
D12*
X303250000Y-124000000D03*
D11*
X303250000Y-129900000D03*
D10*
X308750000Y-124000000D03*
%TD*%
%TO.C,SW29*%
X169500000Y-90000000D03*
D11*
X170000000Y-93800000D03*
D12*
X175000000Y-90000000D03*
D11*
X175000000Y-95900000D03*
D10*
X180500000Y-90000000D03*
%TD*%
%TO.C,SW7*%
X88500000Y-107000000D03*
D11*
X89000000Y-110800000D03*
D12*
X94000000Y-107000000D03*
D11*
X94000000Y-112900000D03*
D10*
X99500000Y-107000000D03*
%TD*%
%TO.C,SW34*%
X196500000Y-107000000D03*
D11*
X197000000Y-110800000D03*
D12*
X202000000Y-107000000D03*
D11*
X202000000Y-112900000D03*
D10*
X207500000Y-107000000D03*
%TD*%
%TO.C,SW22*%
X147000000Y-124000000D03*
D11*
X147500000Y-127800000D03*
D12*
X152500000Y-124000000D03*
D11*
X152500000Y-129900000D03*
D10*
X158000000Y-124000000D03*
%TD*%
%TO.C,SW15*%
X108775000Y-158125000D03*
D11*
X109275000Y-161925000D03*
D12*
X114275000Y-158125000D03*
D11*
X114275000Y-164025000D03*
D10*
X119775000Y-158125000D03*
%TD*%
%TO.C,SW6*%
X79500000Y-90000000D03*
D11*
X80000000Y-93800000D03*
D12*
X85000000Y-90000000D03*
D11*
X85000000Y-95900000D03*
D10*
X90500000Y-90000000D03*
%TD*%
%TO.C,SW30*%
X178500000Y-107000000D03*
D11*
X179000000Y-110800000D03*
D12*
X184000000Y-107000000D03*
D11*
X184000000Y-112900000D03*
D10*
X189500000Y-107000000D03*
%TD*%
%TO.C,SW37*%
X205500000Y-90000000D03*
D11*
X206000000Y-93800000D03*
D12*
X211000000Y-90000000D03*
D11*
X211000000Y-95900000D03*
D10*
X216500000Y-90000000D03*
%TD*%
%TO.C,SW23*%
X156000000Y-141000000D03*
D11*
X156500000Y-144800000D03*
D12*
X161500000Y-141000000D03*
D11*
X161500000Y-146900000D03*
D10*
X167000000Y-141000000D03*
%TD*%
%TO.C,SW31*%
X183000000Y-124000000D03*
D11*
X183500000Y-127800000D03*
D12*
X188500000Y-124000000D03*
D11*
X188500000Y-129900000D03*
D10*
X194000000Y-124000000D03*
%TD*%
%TO.C,SW46*%
X266250000Y-158000000D03*
D11*
X266750000Y-161800000D03*
D12*
X271750000Y-158000000D03*
D11*
X271750000Y-163900000D03*
D10*
X277250000Y-158000000D03*
%TD*%
%TO.C,SW14*%
X120000000Y-141000000D03*
D11*
X120500000Y-144800000D03*
D12*
X125500000Y-141000000D03*
D11*
X125500000Y-146900000D03*
D10*
X131000000Y-141000000D03*
%TD*%
%TO.C,SW50*%
X264000000Y-141000000D03*
D11*
X264500000Y-144800000D03*
D12*
X269500000Y-141000000D03*
D11*
X269500000Y-146900000D03*
D10*
X275000000Y-141000000D03*
%TD*%
%TO.C,SW27*%
X165000000Y-124000000D03*
D11*
X165500000Y-127800000D03*
D12*
X170500000Y-124000000D03*
D11*
X170500000Y-129900000D03*
D10*
X176000000Y-124000000D03*
%TD*%
%TO.C,SW13*%
X111000000Y-124000000D03*
D11*
X111500000Y-127800000D03*
D12*
X116500000Y-124000000D03*
D11*
X116500000Y-129900000D03*
D10*
X122000000Y-124000000D03*
%TD*%
%TO.C,SW17*%
X124500000Y-107000000D03*
D11*
X125000000Y-110800000D03*
D12*
X130000000Y-107000000D03*
D11*
X130000000Y-112900000D03*
D10*
X135500000Y-107000000D03*
%TD*%
%TO.C,SW45*%
X246000000Y-141000000D03*
D11*
X246500000Y-144800000D03*
D12*
X251500000Y-141000000D03*
D11*
X251500000Y-146900000D03*
D10*
X257000000Y-141000000D03*
%TD*%
%TO.C,SW2*%
X66000000Y-107000000D03*
D11*
X66500000Y-110800000D03*
D12*
X71500000Y-107000000D03*
D11*
X71500000Y-112900000D03*
D10*
X77000000Y-107000000D03*
%TD*%
%TO.C,SW5*%
X63750000Y-158000000D03*
D11*
X64250000Y-161800000D03*
D12*
X69250000Y-158000000D03*
D11*
X69250000Y-163900000D03*
D10*
X74750000Y-158000000D03*
%TD*%
%TO.C,SW12*%
X106500000Y-107000000D03*
D11*
X107000000Y-110800000D03*
D12*
X112000000Y-107000000D03*
D11*
X112000000Y-112900000D03*
D10*
X117500000Y-107000000D03*
%TD*%
%TO.C,SW32*%
X192000000Y-141000000D03*
D11*
X192500000Y-144800000D03*
D12*
X197500000Y-141000000D03*
D11*
X197500000Y-146900000D03*
D10*
X203000000Y-141000000D03*
%TD*%
%TO.C,SW55*%
X293250000Y-141000000D03*
D11*
X293750000Y-144800000D03*
D12*
X298750000Y-141000000D03*
D11*
X298750000Y-146900000D03*
D10*
X304250000Y-141000000D03*
%TD*%
%TO.C,SW47*%
X241500000Y-90000000D03*
D11*
X242000000Y-93800000D03*
D12*
X247000000Y-90000000D03*
D11*
X247000000Y-95900000D03*
D10*
X252500000Y-90000000D03*
%TD*%
%TO.C,SW28*%
X174000000Y-141000000D03*
D11*
X174500000Y-144800000D03*
D12*
X179500000Y-141000000D03*
D11*
X179500000Y-146900000D03*
D10*
X185000000Y-141000000D03*
%TD*%
%TO.C,SW20*%
X133500000Y-90000000D03*
D11*
X134000000Y-93800000D03*
D12*
X139000000Y-90000000D03*
D11*
X139000000Y-95900000D03*
D10*
X144500000Y-90000000D03*
%TD*%
%TO.C,SW52*%
X259500000Y-90000000D03*
D11*
X260000000Y-93800000D03*
D12*
X265000000Y-90000000D03*
D11*
X265000000Y-95900000D03*
D10*
X270500000Y-90000000D03*
%TD*%
%TO.C,SW19*%
X138000000Y-141000000D03*
D11*
X138500000Y-144800000D03*
D12*
X143500000Y-141000000D03*
D11*
X143500000Y-146900000D03*
D10*
X149000000Y-141000000D03*
%TD*%
M02*
